<?xml version="1.0" encoding="UTF-8"?><!DOCTYPE svg PUBLIC "-//W3C//DTD SVG 1.1//EN" "http://www.w3.org/Graphics/SVG/1.1/DTD/svg11.dtd"><svg xmlns="http://www.w3.org/2000/svg" xmlns:xlink="http://www.w3.org/1999/xlink" xmlns:dc="http://purl.org/dc/elements/1.1/" xmlns:cc="http://creativecommons.org/ns#" xmlns:rdf="http://www.w3.org/1999/02/22-rdf-syntax-ns#" xmlns:svg="http://www.w3.org/2000/svg" xmlns:sodipodi="http://sodipodi.sourceforge.net/DTD/sodipodi-0.dtd" xmlns:inkscape="http://www.inkscape.org/namespaces/inkscape"><symbol id="arrow" viewBox="0 0 384 201.60001">
  <metadata id="metadata8">
    <rdf:RDF>
      <cc:Work rdf:about="">
        <dc:format>image/svg+xml</dc:format>
        <dc:type rdf:resource="http://purl.org/dc/dcmitype/StillImage"/>
        <dc:title/>
      </cc:Work>
    </rdf:RDF>
  </metadata>
  
  <sodipodi:namedview pagecolor="#ffffff" bordercolor="#666666" borderopacity="1" objecttolerance="10" gridtolerance="10" guidetolerance="10" inkscape:pageopacity="0" inkscape:pageshadow="2" inkscape:window-width="1366" inkscape:window-height="715" id="namedview4" showgrid="false" inkscape:zoom="1.0338542" inkscape:cx="192" inkscape:cy="100.8" inkscape:window-x="-8" inkscape:window-y="-8" inkscape:window-maximized="1" inkscape:current-layer="svg2"/>
  <path style="stroke-width:0.32000002" d="m 144.75386,150.00726 c -25.25424,-25.212 -46.631099,-46.72735 -47.504126,-47.81187 -6.999111,-8.694707 -3.820739,-20.727761 6.583016,-24.922747 4.30455,-1.73568 10.01908,-1.11944 14.1289,1.523623 0.85311,0.548637 17.6434,17.063124 37.31178,36.698854 l 35.76068,35.70134 35.75932,-35.69392 c 19.66762,-19.631659 36.36613,-36.097221 37.1078,-36.590137 3.14479,-2.09007 7.91427,-3.112732 11.45152,-2.455417 11.71301,2.176576 17.17624,16.211853 9.84249,25.285784 -1.57192,1.94491 -93.85697,94.10449 -94.23261,94.10449 -0.16059,0 -20.95454,-20.628 -46.20877,-45.84 z M 144.22507,80.410016 C 118.40893,54.580498 96.857055,32.894441 96.332025,32.218778 c -0.525034,-0.675663 -1.259658,-2.043663 -1.632496,-3.04 -1.605846,-4.291306 -1.579642,-7.762395 0.09051,-11.988869 0.839801,-2.125202 1.386748,-2.935972 3.265728,-4.840965 5.081743,-5.1520958 11.897583,-6.3288478 18.416983,-3.1796808 2.33226,1.1265878 3.41839,2.1763428 38.48,37.1913018 l 36.08,36.031992 36.08,-36.031992 c 35.1139,-35.067176 36.14426,-36.062903 38.48,-37.1864018 9.00983,-4.333768 19.00471,-0.09048 22.2803,9.4590218 0.70216,2.047045 0.78681,6.832153 0.15451,8.73407 -0.7723,2.323026 -1.75365,4.138364 -3.11378,5.760001 -0.73809,0.88 -22.13385,22.445242 -47.54613,47.92276 L 191.1635,127.37278 Z" id="path817" inkscape:connector-curvature="0"/>
</symbol><symbol id="checked" viewBox="0 0 980 790">
  <metadata id="metadata8">
    <rdf:RDF>
      <cc:Work rdf:about="">
        <dc:format>image/svg+xml</dc:format>
        <dc:type rdf:resource="http://purl.org/dc/dcmitype/StillImage"/>
        <dc:title/>
      </cc:Work>
    </rdf:RDF>
  </metadata>
  
  <sodipodi:namedview pagecolor="#ffffff" bordercolor="#666666" borderopacity="1" objecttolerance="10" gridtolerance="10" guidetolerance="10" inkscape:pageopacity="0" inkscape:pageshadow="2" inkscape:window-width="1366" inkscape:window-height="715" id="namedview4" showgrid="false" inkscape:zoom="0.29873418" inkscape:cx="490" inkscape:cy="395" inkscape:window-x="-8" inkscape:window-y="-8" inkscape:window-maximized="1" inkscape:current-layer="svg2"/>
  <path style="fill:#000000" d="m 328.3475,786.93155 c -22.7777,-5.94746 -42.5233,-21.85649 -62.5,-50.35618 -49.0486,-69.97495 -125.776,-158.75471 -210.500003,-243.56561 -17.4619,-17.47977 -29.3752,-30.2626 -32.6373,-35.01928 -21.6696004,-31.59854 -24.8229004,-60.89326 -9.8647,-91.64391 19.1966,-39.46358 65.4088,-59.48312 105.685903,-45.784 19.6985,6.69987 33.8056,17.06193 76.6892,56.33019 90.3919,82.77148 131.0199,119.32175 132.1651,118.90011 C 327.8231,495.63179 335.2603,487.625 343.9128,478 411.08189,403.28075 515.91578,295.84059 584.35224,231.58297 681.16889,140.6781 763.29745,73.932222 826.84746,34.5071 c 24.8469,-15.4145 45.20237,-26.3011897 55.5,-29.6829897 13.15312,-4.31955996 29.28574,-5.03727996 42.5,-1.89076 29.64267,7.05836 50.57646,28.4041597 56.68023,57.7957727 3.88325,18.699121 0.70754,38.395254 -8.4847,52.623107 -8.85531,13.70635 -19.33472,23.54462 -50.69553,47.59391 -74.87066,57.41517 -140.32542,118.72695 -213.02243,199.53911 -91.74692,101.98861 -189.78866,233.10839 -269.82409,360.85929 -13.97294,22.30332 -20.38791,30.89569 -31.14398,41.71498 -18.07061,18.17682 -36.75351,26.01278 -61.71736,25.88542 -7.3392,-0.0374 -13.1918,-0.68163 -18.2921,-2.01339 z" id="path4506" inkscape:connector-curvature="0"/>
</symbol><symbol id="lesson-grid" viewBox="0 0 980 982">
  <metadata id="metadata8">
    <rdf:RDF>
      <cc:Work rdf:about="">
        <dc:format>image/svg+xml</dc:format>
        <dc:type rdf:resource="http://purl.org/dc/dcmitype/StillImage"/>
        <dc:title/>
      </cc:Work>
    </rdf:RDF>
  </metadata>
  
  <sodipodi:namedview pagecolor="#ffffff" bordercolor="#666666" borderopacity="1" objecttolerance="10" gridtolerance="10" guidetolerance="10" inkscape:pageopacity="0" inkscape:pageshadow="2" inkscape:window-width="1366" inkscape:window-height="715" id="namedview4" showgrid="false" inkscape:zoom="0.24032587" inkscape:cx="490" inkscape:cy="491" inkscape:window-x="-8" inkscape:window-y="-8" inkscape:window-maximized="1" inkscape:current-layer="svg2"/>
  <path style="fill:#000000" d="m 40.821992,984.17808 c -13.8626,-0.76944 -17.0595,-1.93593 -23.9657,-8.7446 -8.4441,-8.32476 -8.7666,-9.53864 -9.6382005,-36.27246 -1.096,-33.61198 -1.0266,-217.14443 0.09,-238.15666 0.516,-9.71117 1.4816005,-19.81464 2.1458005,-22.45216 1.4879,-5.90912 7.4558,-12.06379 15.5265,-16.01241 5.4675,-2.675 6.1591,-2.75494 30.7176,-3.55082 13.8183,-0.44782 69.449098,-0.54135 123.624098,-0.20786 l 98.5,0.60635 4.5,2.83617 c 5.4553,3.43821 11.8513,9.951 15.3822,15.66291 l 2.612,4.22552 -0.01,134.27448 c 0,75.65423 -0.4048,136.99597 -0.9188,140.50828 -1.1411,7.79672 -4.4013,14.43041 -9.2409,18.80266 -6.3954,5.77789 -11.2123,7.6249 -22.279,8.54284 -11.7386,0.97371 -209.360298,0.91954 -227.048498,-0.0622 z M 204.48649,952.16102 h 62.8355 V 821.81313 691.46523 l -113.75,-0.54949 c -62.562498,-0.30222 -114.087498,-0.34411 -114.499998,-0.0931 -0.9806,0.59674 -0.9806,260.75867 0,261.80628 0.4125,0.44069 23.6616,0.51569 51.6645,0.16667 28.002998,-0.34901 79.190498,-0.63457 113.749998,-0.63457 z M 78.042392,915.2931 c -7.5792,-8.10269 -8.0421,-16.01035 -1.3303,-22.72218 3.1401,-3.1401 3.3556,-3.19342 15.647,-3.8723 6.854598,-0.3786 39.237898,-0.54194 71.962898,-0.36298 57.8587,0.3164 59.5962,0.38188 62.9865,2.3735 7.509,4.41125 8.9589,16.05286 3.0071,24.14603 l -2.9268,3.97976 -39.1971,0.66305 c -21.5585,0.36467 -54.1369,0.66304 -72.3966,0.66304 H 82.595692 Z m 15.5575,-61.18037 c -8.768,-0.58923 -11.9703,-1.21657 -14.6435,-2.86869 -8.8409,-5.46399 -8.8276,-19.97871 0.024,-25.77869 2.5894,-1.69674 7.0302,-1.80433 74.474298,-1.80433 70.9657,0 71.7504,0.0218 74.5441,2.07108 6.1833,4.53555 8.058,13.57057 4.2293,20.38284 -3.5599,6.33396 -5.5335,6.93117 -26.5598,8.03689 -21.3927,1.12499 -95.1287,1.09926 -112.068098,-0.0391 z m -0.7779,-64.95124 c -10.8341,-0.84046 -15.7755,-2.76369 -18.4743,-7.19029 -2.7951,-4.58453 -2.6777,-12.09968 0.2705,-17.31018 3.6594,-6.46748 5.0294,-6.66807 46.247398,-6.7715 33.7076,-0.0846 36.2959,0.0347 39.9355,1.84053 7.8405,3.89007 10.4605,11.79294 6.5724,19.82458 -3.9847,8.2314 -5.9759,8.84618 -31.4566,9.71234 -25.463,0.86556 -30.7442,0.85263 -43.094898,-0.10548 z m 295.000038,195.0399 c -11.42544,-0.40688 -17.81979,-1.05208 -19.5,-1.96758 -5.099,-2.7783 -9.82515,-7.17254 -13.58364,-12.62971 l -3.86485,-5.61158 -0.695,-18.66575 c -1.03135,-27.69911 -0.95368,-238.79992 0.0928,-252.30987 1.28671,-16.61079 5.26062,-24.02417 15.92496,-29.7082 l 6.06091,-3.23043 26.7824,-1.05445 c 31.1327,-1.22572 207.01371,-0.43601 217.56113,0.97686 11.94705,1.60035 20.82191,9.21057 24.46264,20.97678 1.64141,5.30475 1.75862,14.68123 1.75862,140.68356 0,125.15375 -0.12609,135.40114 -1.72882,140.5 -2.23446,7.10864 -8.03088,14.64762 -14.1894,18.45514 -4.86783,3.00955 -4.93934,3.02034 -24.48193,3.6938 -23.81848,0.82081 -190.87601,0.73629 -214.59985,-0.10857 z m 223.49925,-89.29037 c -4.2e-4,-32.0375 -0.2994,-90.9875 -0.6644,-131 l -0.66365,-72.75 -112.5856,0.0153 c -65.45693,0.009 -113.18445,0.39428 -114.01618,0.92063 -1.22498,0.7752 -1.49563,19.60004 -1.88321,130.98468 l -0.45263,130.07939 H 496.18882 611.32203 Z M 421.54027,916.3625 c -8.36353,-7.72117 -8.34214,-16.81456 0.0611,-25.95148 l 2.06932,-2.25 h 72.72209 72.7221 l 3.17058,3.61109 c 3.86992,4.4076 5.0366,7.30396 5.0366,12.50367 0,4.99145 -1.8893,8.70285 -6.48371,12.7368 l -3.58591,3.14844 h -70.79882 -70.79881 z m 16.59722,-62.12493 c -13.48775,-0.56826 -13.73044,-0.61969 -16.8761,-3.57655 -3.47363,-3.26515 -6.88251,-9.7405 -6.9174,-13.13999 -0.0121,-1.177 2.00211,-4.8895 4.47597,-8.25 l 4.49793,-6.11001 h 72.81498 72.81498 l 2.53373,2.75 c 6.27402,6.80955 7.57774,13.26611 4.0889,20.25 -2.60713,5.21888 -7.17892,6.97261 -20.95867,8.03967 -12.57031,0.97341 -93.63641,0.99908 -116.47432,0.0369 z m -2.95129,-65.06512 c -9.78345,-0.78619 -14.08482,-2.73122 -17.61077,-7.96338 -4.69837,-6.97191 -2.01286,-17.84615 5.30744,-21.49103 3.65561,-1.82017 6.24185,-1.94141 40.9207,-1.91829 41.41947,0.0276 41.15312,-0.0135 45.98978,7.10425 3.20563,4.71751 3.29994,10.35072 0.26223,15.663 -3.74207,6.54406 -5.93883,7.55214 -18.7697,8.61334 -12.79945,1.0586 -42.88083,1.05437 -56.09968,-0.008 z m 311.54319,195.05458 -34.09265,-0.56601 -6.65033,-5 c -4.19533,-3.15422 -7.3794,-6.47662 -8.62529,-9 -4.26412,-8.63637 -4.50404,-16.86009 -4.52203,-155 l -0.0171,-131 2.35135,-4.5 c 3.56038,-6.81381 8.49953,-12.37497 14.29231,-16.09219 l 5.22157,-3.35067 51.06738,-0.80043 c 65.91986,-1.03322 189.48308,0.50834 198.19615,2.47268 7.94029,1.79012 10.27549,3.41173 16.21878,11.26263 l 4.91132,6.4877 0.71136,68.26014 c 0.39124,37.54308 0.558,100.88514 0.37057,140.76014 -0.30969,65.88261 -0.49727,72.84565 -2.05518,76.28691 -2.62517,5.7987 -12.13715,15.17514 -18.09456,17.83671 l -5.19105,2.31919 -90,0.0946 c -49.5,0.052 -105.34169,-0.16009 -124.09264,-0.4714 z m 207.34634,-162.31601 -0.2537,-131.25 -111.74676,0.14078 c -61.46072,0.0774 -112.80204,0.40564 -114.09182,0.72935 -2.31381,0.58073 -2.35379,0.81872 -3.00018,17.85922 -0.36032,9.49886 -0.6565,68.23315 -0.65818,130.52065 l -0.003,113.25 h 115.0037 115.00371 z m -162.5494,97.27505 -26.29571,-0.52505 -2.83904,-4.22887 c -1.56147,-2.32588 -3.13505,-5.80671 -3.49683,-7.73518 -1.35074,-7.20006 3.16345,-15.56992 9.3339,-17.30621 1.42636,-0.40136 33.64338,-0.72974 71.59338,-0.72974 62.64076,0 69.34359,0.15574 72.7281,1.68982 6.15625,2.79043 10.34179,12.06922 7.88076,17.47061 -0.62834,1.37905 -3.04738,4.71939 -5.37565,7.42298 l -4.23321,4.91561 -46.5,-0.22446 c -25.575,-0.12345 -58.33307,-0.46073 -72.7957,-0.74951 z m -11.77227,-65.03571 c -17.37635,-1.23244 -20.87709,-3.75622 -20.79179,-14.98934 0.0452,-5.95437 1.77225,-10.1949 5.61282,-13.78159 l 2.44309,-2.28159 72.40193,0.28159 c 80.11601,0.31159 74.88423,-0.15314 78.90984,7.00946 4.27144,7.60002 2.05648,17.07831 -4.94683,21.16846 -2.69138,1.57185 -6.20055,2.11866 -17.46461,2.7214 -17.48496,0.93562 -102.48739,0.84167 -116.16445,-0.12839 z m -1.51268,-64.93161 c -10.58414,-1.10418 -14.70523,-2.65892 -16.99301,-6.41082 -2.29422,-3.76248 -2.5748,-12.17907 -0.56436,-16.92903 2.77303,-6.55167 4.14421,-7.05428 21.62686,-7.92731 22.97152,-1.14713 64.05019,0.34976 67.25681,2.45082 6.28445,4.11772 7.50092,15.46889 2.3776,22.18591 -4.52192,5.92853 -8.99748,6.7306 -39.62325,7.10088 -14.575,0.17622 -29.91129,-0.0355 -34.08065,-0.47045 z M 146.23729,623.67562 c -1.4216,-0.77293 -4.258,-3.44724 -6.303,-5.94292 l -3.7182,-4.5376 0.71,-54.46186 0.7099,-54.46186 5.2763,-4.55518 5.2762,-4.55518 h 165.5668 165.56674 v -48.91583 -48.91583 l -87.75,-0.41561 c -95.55064,-0.45255 -90.55054,-0.15935 -105.46724,-6.18451 -10.1771,-4.11068 -17.0107,-8.80969 -26.2761,-18.06822 -13.3917,-13.38181 -20.7336,-27.98017 -23.7257,-47.17538 -1.853,-11.88753 -1.7753,-238.729952 0.085,-249.824622 3.0702,-18.30436 10.9183,-33.46016 24.0792,-46.5 11.4538,-11.34835 23.9307,-18.47024 36.7604,-20.9828502 2.6367,-0.51639 28.4189,-1.45972 57.29394,-2.09631 59.51077,-1.312 300.00273,-0.59711 326.57498,0.97079 14.38541,0.84881 16.94041,1.28224 24.3088,4.1238002 21.53769,8.30581 39.60627,26.89747 47.49649,48.8715 5.17792,14.42037 5.11973,12.81084 5.11973,141.613072 0,112.47723 -0.11462,120.53286 -1.82829,128.5 -5.48291,25.49084 -21.58419,46.84579 -43.64977,57.8922 -17.37799,8.69973 -16.43796,8.6078 -88.02194,8.6078 -67.19849,0 -70.51294,-0.22374 -75.06302,-5.06709 -4.22723,-4.49968 -3.64684,-17.67054 0.96249,-21.84193 1.00329,-0.90797 4.45804,-2.07953 7.67721,-2.60346 3.21918,-0.52393 33.96566,-1.44654 68.32552,-2.05023 l 62.47247,-1.09763 5.56931,-2.81138 c 7.17342,-3.62113 17.11441,-11.10335 20.28508,-15.26784 4.107,-5.3943 6.73226,-11.375 7.89827,-17.99334 0.74814,-4.24651 1.24947,-45.99227 1.55493,-129.47944 l 0.4508,-123.212342 -4.68468,-9.07041 c -5.34062,-10.34041 -14.14798,-20.0998 -20.79092,-23.03829 -2.29323,-1.0144 -7.09179,-2.35663 -10.66348,-2.98274 -14.54615,-2.54989 -212.5772,-3.75588 -322.99398,-1.967 -57.75874,0.93576 -66.47094,1.6389 -73.40504,5.92442 -5.9608,3.68402 -14.9903,14.32482 -19.4823,22.95912 l -4.3038,8.27234 0.4814,121.663622 c 0.3248,82.10897 0.8447,124.10109 1.5992,129.16089 2.1129,14.17154 8.8682,23.17772 24.4428,32.58731 l 8.416,5.08458 65.37585,0.66458 c 35.95674,0.36552 81.12589,0.68522 100.37589,0.71045 l 35,0.0459 4.5,5.14311 4.5,5.14311 0.35751,59.81187 0.35751,59.81186 165.64249,0.0318 165.64249,0.0318 5.23605,4.71817 5.23605,4.71817 0.63484,54.5 0.63483,54.5 -3.72125,4.27622 c -4.65464,5.34883 -8.2231,7.2238 -13.74835,7.2238 -4.40414,0 -7.10984,-1.31445 -12.02217,-5.84045 l -2.75,-2.53373 V 572.47393 528.16102 H 668.95155 513.58158 l -0.4406,41.79298 c -0.42815,40.61185 -0.50289,41.91894 -2.64456,46.25 -2.97615,6.01861 -6.36103,8.27353 -13.12945,8.74651 -4.57257,0.31953 -6.14334,-0.0227 -8.95349,-1.95099 -7.11528,-4.88228 -7.38541,-5.77405 -8.20158,-27.07583 -0.40593,-10.59447 -0.77232,-30.17517 -0.81421,-43.51267 l -0.0762,-24.25 h -155.00004 -155 v 43.79705 43.79705 l -3.75,3.58472 c -2.0625,1.97159 -4.7329,4.08792 -5.9342,4.70295 -2.9976,1.53461 -10.2691,1.33538 -13.4005,-0.36717 z M 371.51154,261.75079 c -8.1435,-8.83466 -6.26774,-20.66925 4.17961,-26.37002 2.90848,-1.58707 11.57608,-1.69543 122.01989,-1.52552 l 118.88901,0.18291 3.44631,3.31143 c 7.78513,7.48044 8.33629,15.08017 1.72263,23.75257 l -3.85793,5.05886 H 496.7439 375.57675 Z m 1.11861,-96.83977 c -8.65617,-9.12147 -8.30036,-19.25702 0.91568,-26.08374 2.54113,-1.88233 4.85489,-2.06824 34.5,-2.77201 17.47691,-0.4149 63.79003,-0.78584 102.91805,-0.82431 l 71.14184,-0.0699 5.09122,4.57744 c 8.86357,7.96911 9.20292,15.70326 1.06062,24.17256 l -4.08591,4.25 H 479.94301 375.71436 Z" id="path817" inkscape:connector-curvature="0"/>
</symbol></svg>